<?xml version="1.0" encoding="utf-8"?>
<svg id="svg2" viewBox="0 0 500 670" xmlns="http://www.w3.org/2000/svg" xmlns:bx="https://boxy-svg.com">
  <desc>Source: openclipart.org/detail/209545</desc>
  <defs>
    <bx:export>
      <bx:file format="svg" path="building.svg" width="500" height="670"/>
    </bx:export>
  </defs>
  <path id="path222" style="fill: rgb(255, 255, 255);" d="M 96.878 426.786 C 107.111 427.17 114.523 430.224 119.203 435.826 C 123.89 440.512 124.836 445.341 122.023 450.497 C 119.203 454.714 113.665 456.83 105.235 456.83 C 97.283 456.354 90.329 454.254 84.236 450.497 C 78.706 446.769 77.519 441.847 80.814 435.826 C 84.472 429.734 89.869 426.786 96.878 426.786 Z"/>
  <path d="M 101.312 93.692 C 92.512 93.692 85.312 100.892 85.312 109.692 L 85.312 493.692 C 85.312 502.492 92.512 509.692 101.312 509.692 L 181.312 509.692 L 181.312 445.692 C 181.312 419.192 202.812 397.692 229.312 397.692 C 255.812 397.692 277.312 419.192 277.312 445.692 L 277.312 509.692 L 357.312 509.692 C 366.112 509.692 373.312 502.492 373.312 493.692 L 373.312 109.692 C 373.312 100.892 366.112 93.692 357.312 93.692 L 101.312 93.692 Z M 37.312 109.692 C 37.312 74.392 66.012 45.692 101.312 45.692 L 357.312 45.692 C 392.612 45.692 421.312 74.392 421.312 109.692 L 421.312 493.692 C 421.312 528.992 392.612 557.692 357.312 557.692 L 101.312 557.692 C 66.012 557.692 37.312 528.992 37.312 493.692 L 37.312 109.692 Z"/>
  <rect x="117.859" y="139.637" width="74.302" height="67.897" style="stroke: rgb(0, 0, 0);"/>
  <rect x="256.215" y="139.637" width="74.302" height="67.897" style="fill: rgb(216, 216, 216); stroke: rgb(0, 0, 0);"/>
  <rect x="256.215" y="246.606" width="74.302" height="67.897" style="stroke: rgb(0, 0, 0); fill: rgb(8, 8, 8);"/>
  <rect x="117.859" y="246.606" width="74.302" height="67.897" style="fill: rgb(216, 216, 216); stroke: rgb(0, 0, 0);"/>
</svg>